<svg xmlns="http://www.w3.org/2000/svg" viewBox="0 0 96 96" role="img" aria-label="EWS Mark">
  <defs>
    <linearGradient id="b" x1="12" y1="10" x2="84" y2="86" gradientUnits="userSpaceOnUse">
      <stop offset="0" stop-color="#0b4b8c"/>
      <stop offset="1" stop-color="#0f766e"/>
    </linearGradient>
  </defs>
  <path d="M48 8c18 0 32 10 32 10v24c0 26-19 42-32 46C35 84 16 68 16 42V18S30 8 48 8Z" fill="url(#b)"/>
  <path d="M24 46c10-8 18-12 24-12s14 4 24 12v10c-10-8-18-12-24-12s-14 4-24 12V46Z" fill="#ffffff" opacity="0.92"/>
  <path d="M58 30c-9 2-16 9-16 18 0 7 4 14 10 17-1-4 0-9 4-13 4-5 3-12 2-16Z" fill="#ffffff" opacity="0.92"/>
</svg>

