<svg xmlns="http://www.w3.org/2000/svg" viewBox="0 0 1600 900" preserveAspectRatio="xMidYMid slice">
  <defs>
    <linearGradient id="sky" x1="0" y1="0" x2="0" y2="1">
      <stop offset="0" stop-color="#05201a"/>
      <stop offset="0.55" stop-color="#063326"/>
      <stop offset="1" stop-color="#04110e"/>
    </linearGradient>
    <linearGradient id="mist" x1="0" y1="0" x2="1" y2="1">
      <stop offset="0" stop-color="#38bdf8" stop-opacity="0.18"/>
      <stop offset="1" stop-color="#22c55e" stop-opacity="0.10"/>
    </linearGradient>
    <linearGradient id="hill1" x1="0" y1="0" x2="1" y2="1">
      <stop offset="0" stop-color="#0b3b2d"/>
      <stop offset="1" stop-color="#05201a"/>
    </linearGradient>
    <linearGradient id="hill2" x1="0" y1="0" x2="1" y2="1">
      <stop offset="0" stop-color="#0f6b3c"/>
      <stop offset="1" stop-color="#064e3b"/>
    </linearGradient>
    <filter id="blur" x="-20%" y="-20%" width="140%" height="140%">
      <feGaussianBlur stdDeviation="16"/>
    </filter>
  </defs>

  <rect width="1600" height="900" fill="url(#sky)"/>
  <path d="M0 360C220 280 420 260 640 300c240 44 390 10 560-44 170-54 300-64 400-34v318H0V360Z" fill="url(#mist)" filter="url(#blur)"/>
  <path d="M0 650c160-110 320-160 520-150 230 12 360 110 540 138 210 32 360-30 540-130v392H0V650Z" fill="url(#hill1)"/>
  <path d="M0 720c180-70 330-86 520-54 160 26 270 72 410 90 250 34 420-42 670-150v304H0V720Z" fill="url(#hill2)"/>

  <circle cx="1260" cy="190" r="130" fill="#f59e0b" fill-opacity="0.10" filter="url(#blur)"/>
  <circle cx="1260" cy="190" r="70" fill="#fde68a" fill-opacity="0.08" filter="url(#blur)"/>
</svg>

