<svg xmlns="http://www.w3.org/2000/svg" viewBox="0 0 96 96" role="img" aria-label="Climate EWS">
  <defs>
    <linearGradient id="g1" x1="8" y1="8" x2="88" y2="88" gradientUnits="userSpaceOnUse">
      <stop offset="0" stop-color="#22c55e"/>
      <stop offset="0.55" stop-color="#38bdf8"/>
      <stop offset="1" stop-color="#16a34a"/>
    </linearGradient>
    <linearGradient id="g2" x1="12" y1="72" x2="84" y2="20" gradientUnits="userSpaceOnUse">
      <stop offset="0" stop-color="#05201a" stop-opacity="0.85"/>
      <stop offset="1" stop-color="#04110e" stop-opacity="0.35"/>
    </linearGradient>
  </defs>

  <circle cx="48" cy="48" r="42" fill="url(#g1)"/>
  <path d="M20 62c11-8 25-12 38-10 7 1 13 4 18 8 2 2 5 2 7 0v10c0 6-5 10-10 10H30c-6 0-10-4-10-10V62Z" fill="url(#g2)"/>
  <path d="M54 24c-10 4-16 12-16 22 0 12 10 22 22 22 8 0 15-4 19-11-7 3-16 2-22-4-8-7-9-19-3-29Z" fill="#ffffff" fill-opacity="0.92"/>
  <path d="M26 53c6-5 13-8 22-8 7 0 13 2 18 5" fill="none" stroke="#ffffff" stroke-opacity="0.92" stroke-width="4" stroke-linecap="round"/>
</svg>

