<svg xmlns="http://www.w3.org/2000/svg" width="520" height="520" viewBox="0 0 520 520">
  <defs>
    <linearGradient id="line" x1="0" y1="0" x2="1" y2="1">
      <stop offset="0" stop-color="#a7f3d0" stop-opacity="0.26"/>
      <stop offset="1" stop-color="#38bdf8" stop-opacity="0.18"/>
    </linearGradient>
  </defs>
  <rect width="520" height="520" fill="none"/>
  <g fill="none" stroke="url(#line)" stroke-width="1.3">
    <path d="M36 90c48-34 108-42 156-18 44 22 80 16 122-10 54-34 120-28 170 10"/>
    <path d="M24 150c74-44 146-46 210-14 54 26 96 18 142-14 58-40 118-32 170 6"/>
    <path d="M18 214c92-54 176-56 252-20 64 30 112 18 160-18 60-44 112-38 156 0"/>
    <path d="M20 282c98-44 186-46 264-14 66 26 118 12 174-24 56-36 102-34 140-10"/>
    <path d="M30 346c80-30 162-34 242-10 72 22 130 6 192-30 52-30 96-30 134-14"/>
    <path d="M44 414c70-22 146-26 224-10 76 16 140-2 208-34 44-22 84-24 118-14"/>
    <path d="M62 476c60-18 126-18 198-4 80 16 150-8 222-44 36-18 68-22 94-14"/>
  </g>
</svg>

